<svg width="30" height="30" viewBox="0 0 100 100" fill="none" xmlns="http://www.w3.org/2000/svg">
<path fill-rule="evenodd" clip-rule="evenodd" d="M4 7.65834C4 5.62723 4.80686 3.6793 6.24307 2.24308C7.67929 0.806868 9.62722 1.02096e-05 11.6583 1.02096e-05H88C89.0066 -0.00163376 90.0036 0.195272 90.9339 0.579455C91.8643 0.963637 92.7097 1.52755 93.4219 2.23891C94.134 2.95027 94.6988 3.79511 95.084 4.72505C95.4692 5.65499 95.6672 6.65178 95.6667 7.65834V84C95.6678 85.0068 95.4703 86.0039 95.0857 86.9342C94.7011 87.8646 94.1368 88.71 93.4251 89.4221C92.7134 90.1342 91.8683 90.699 90.9381 91.0841C90.0079 91.4693 89.0109 91.6672 88.0042 91.6667H11.6583C10.6523 91.6667 9.65608 91.4684 8.72665 91.0833C7.79723 90.6982 6.9528 90.1337 6.2416 89.4221C5.5304 88.7105 4.96638 87.8658 4.58176 86.9362C4.19714 86.0065 3.99945 85.0102 4 84.0042V7.65834ZM40.2833 34.95H52.6958V41.1833C54.4875 37.6 59.0708 34.375 65.9583 34.375C79.1625 34.375 82.2917 41.5125 82.2917 54.6083V78.8667H68.9292V57.5917C68.9292 50.1333 67.1375 45.925 62.5875 45.925C56.275 45.925 53.65 50.4625 53.65 57.5917V78.8667H40.2833V34.95ZM17.3667 78.2958H30.7333V34.375H17.3667V78.2917V78.2958ZM32.6458 20.05C32.671 21.1945 32.4674 22.3325 32.0468 23.3972C31.6263 24.4619 30.9973 25.4318 30.1968 26.2501C29.3963 27.0685 28.4404 27.7186 27.3852 28.1625C26.33 28.6064 25.1968 28.8351 24.0521 28.8351C22.9073 28.8351 21.7741 28.6064 20.7189 28.1625C19.6638 27.7186 18.7079 27.0685 17.9074 26.2501C17.1069 25.4318 16.4779 24.4619 16.0573 23.3972C15.6368 22.3325 15.4331 21.1945 15.4583 20.05C15.5078 17.8036 16.4349 15.6658 18.0412 14.0945C19.6474 12.5233 21.8051 11.6434 24.0521 11.6434C26.2991 
11.6434 28.4567 12.5233 30.063 14.0945C31.6692 15.6658 32.5964 17.8036 32.6458 20.05V20.05Z" fill="black"/>
</svg>
